<?xml version="1.0" encoding="UTF-8"?><svg id="Safe_Logo" xmlns="http://www.w3.org/2000/svg" viewBox="0 0 713 318"><g id="Logo"><g id="X"><g id="Left"><path d="m374.78,201.54c-5.7,2.25-11.82,3.28-17.95,3.28h-17.73v27.82h14.98l3.22-.02c10.55-.08,21.04-2.15,30.65-6.48,4.6-2.07,9.15-4.68,13.32-7.89-7.06-7.22-11.68-15.82-13.63-25.46-3.27,4.13-8.18,6.92-12.85,8.76Z"/><path d="m428.64,166.76c2.65-2.22,5.75-3.98,8.83-5.35,6.57-2.91,13.73-4.28,20.92-4.28h17.51v-27.82h-14.98l-3.51.03c-11.98.11-23.85,2.77-34.52,8.18-3.05,1.55-6.06,3.34-8.92,5.37,7.2,6.82,12.16,14.88,14.66,23.86Z"/></g><path id="Right" d="m475.9,232.64h-9.12l-9.29-.05c-10.97-.05-21.88-2.26-31.83-6.86-15.98-7.38-31.29-21.16-31.29-44.38,0-10.17-8.24-16.31-16.28-19.88-6.68-2.96-13.95-4.35-21.27-4.35h-17.73s0-27.82,0-27.82h17.23l1.62.02c12.12.14,24.14,2.83,34.94,8.3,15.52,7.85,29.88,21.68,29.88,43.89,0,10.8,8.78,16.75,16.87,19.95,5.81,2.29,12.04,3.35,18.29,3.35h17.98s0,13.27,0,13.27v14.55Z"/><path id="Right_Arrow" d="m466.91,200.95v34.79c0,1.12.77,1.88,1.47,1.45l28.3-17.4c1.08-.67,1.08-2.23,0-2.9l-28.3-17.4c-.7-.43-1.47.33-1.47,1.45Z"/><path id="Left_arrow" d="m346.09,200.95v34.79c0,1.12-.77,1.88-1.47,1.45l-28.3-17.4c-1.08-.67-1.08-2.23,0-2.9l28.3-17.4c.7-.43,1.47.33,1.47,1.45Z"/></g><g id="it"><path d="m519.04,81.31c4.56,0,8.5,1.07,11.81,3.21,3.31,2.14,4.97,6.1,4.97,11.89s-1.66,9.59-4.97,11.79c-3.31,2.21-7.25,3.31-11.81,3.31s-8.67-1.1-11.91-3.31c-3.25-2.21-4.87-6.14-4.87-11.79s1.62-9.75,4.87-11.89c3.24-2.14,7.22-3.21,11.91-3.21Zm14.96,44.75v112.8h-31v-112.8h31Z"/><path d="m614.49,216.25c3.46,0,6.78-.34,9.96-1.03,3.18-.69,6.36-1.52,9.55-2.48v22.96c-3.32,1.38-7.45,2.59-12.36,3.62-4.92,1.03-10.29,1.55-16.1,1.55-6.79,0-12.85-1.11-18.18-3.31-5.33-2.2-9.56-6.03-12.68-11.48-3.12-5.45-4.68-13-4.68-22.65v-54.4h-15v-12.96l17.15-10.29,8.99-23.67h19.86v23.96h32v22.96h-32v54.4c0,4.28,1.24,7.48,3.74,9.62,2.49,2.14,5.74,3.21,9.75,3.21Z"/></g><g id="mi"><path d="m212.99,122.92c12.86,0,22.58,3.39,29.15,10.16,6.57,6.77,9.86,17.65,9.86,32.62v72.16h-31v-65.98c0-16.27-5.73-24.41-17.17-24.41-8.24,0-14.1,2.9-17.59,8.69-3.49,5.79-5.24,14.14-5.24,25.03v56.68h-30v-65.98c0-16.27-5.73-24.41-17.17-24.41-8.66,0-14.63,3.21-17.91,9.62-3.28,6.41-4.92,15.62-4.92,27.61v53.16h-31v-112.8h23.65l4.15,14.97h1.66c3.46-5.99,8.2-10.34,14.21-13.05,6.02-2.71,12.27-4.06,18.78-4.06,8.3,0,15.35,1.39,21.16,4.17,5.81,2.78,10.23,7.1,13.28,12.94h2.7c3.46-5.99,8.26-10.34,14.42-13.05,6.15-2.71,12.48-4.06,18.98-4.06Z"/><path d="m293.73,80.86c4.56,0,8.5,1.07,11.81,3.21,3.31,2.14,4.97,6.1,4.97,11.89s-1.66,9.59-4.97,11.79c-3.31,2.21-7.25,3.31-11.81,3.31s-8.67-1.1-11.91-3.31c-3.25-2.2-4.87-6.14-4.87-11.79s1.62-9.75,4.87-11.89c3.24-2.14,7.22-3.21,11.91-3.21Zm15.27,44.2v112.8h-31v-112.8h31Z"/></g></g></svg>