<?xml version="1.0" encoding="UTF-8"?><svg id="Safe_Logo" xmlns="http://www.w3.org/2000/svg" viewBox="0 0 182 108"><g id="Left"><path d="m59.28,72.22c-5.7,2.25-11.82,3.28-17.95,3.28h-17.73v27.82h14.98l3.22-.02c10.55-.08,21.04-2.15,30.65-6.48,4.6-2.07,9.15-4.68,13.32-7.89-7.06-7.22-11.68-15.82-13.63-25.46-3.27,4.13-8.18,6.92-12.85,8.76Z"/><path d="m113.14,37.44c2.65-2.22,5.75-3.98,8.83-5.35,6.57-2.91,13.73-4.28,20.92-4.28h17.51V0h-14.98l-3.51.03c-11.98.11-23.85,2.77-34.52,8.18-3.05,1.55-6.06,3.34-8.92,5.37,7.2,6.82,12.16,14.88,14.66,23.86Z"/></g><path id="Right" d="m160.4,103.32h-9.12l-9.29-.05c-10.97-.05-21.88-2.26-31.83-6.86-15.98-7.38-31.29-21.16-31.29-44.38,0-10.17-8.24-16.31-16.28-19.88-6.68-2.96-13.95-4.35-21.27-4.35h-17.73s0-27.82,0-27.82h17.23l1.62.02c12.12.14,24.14,2.83,34.94,8.3,15.52,7.85,29.88,21.68,29.88,43.89,0,10.8,8.78,16.75,16.87,19.95,5.81,2.29,12.04,3.35,18.29,3.35h17.98s0,13.27,0,13.27v14.55Z"/><path id="Right_Arrow" d="m151.41,71.64v34.79c0,1.12.77,1.88,1.47,1.45l28.3-17.4c1.08-.67,1.08-2.23,0-2.9l-28.3-17.4c-.7-.43-1.47.33-1.47,1.45Z"/><path id="Left_arrow" d="m30.59,71.64v34.79c0,1.12-.77,1.88-1.47,1.45L.81,90.48c-1.08-.67-1.08-2.23,0-2.9l28.3-17.4c.7-.43,1.47.33,1.47,1.45Z"/></svg>