<svg xmlns="http://www.w3.org/2000/svg" id="Disc" viewBox="0 0 825 825"><defs><style>.cls-2{letter-spacing:-.02em}.cls-3{fill:#333;font-family:NotoSans-Medium,'Noto Sans';font-size:12px;font-weight:500}.cls-5{fill:#666}</style></defs><path fill="#19191a" d="M412.5 12.5c-220.91 0-400 179.09-400 400s179.09 400 400 400 400-179.09 400-400-179.09-400-400-400Zm0 525c-69.04 0-125-55.96-125-125s55.96-125 125-125 125 55.96 125 125-55.96 125-125 125Z"/><circle id="Inner_Ring" cx="412.5" cy="412.5" r="137" fill="none" stroke="currentColor" stroke-miterlimit="10" stroke-width="27" data-name="Inner Ring"/><g id="Logo"><text class="cls-3" transform="translate(64.75 441.8)"><tspan x="0" y="0" class="cls-2">b</tspan><tspan x="7.2" y="0">y mianjoto</tspan></text><g id="Logo-2" data-name="Logo"><g id="X"><g id="Left"><path d="M143.74 417.9c-1.48.59-3.08.85-4.67.85h-4.62V426h4.74c2.75-.03 5.48-.57 7.98-1.69 1.2-.54 2.38-1.22 3.47-2.05-1.84-1.88-3.04-4.12-3.55-6.63-.85 1.08-2.13 1.8-3.35 2.28ZM157.77 408.84c.69-.58 1.5-1.04 2.3-1.39 1.71-.76 3.58-1.11 5.45-1.11h4.56v-7.25h-4.82c-3.12.04-6.21.73-8.99 2.14-.79.4-1.58.87-2.32 1.4 1.88 1.78 3.17 3.88 3.82 6.21Z" class="cls-5"/></g><path id="Right" d="M170.08 426h-4.79c-2.86-.03-5.7-.6-8.29-1.8-4.16-1.92-8.15-5.51-8.15-11.56 0-2.65-2.15-4.25-4.24-5.18-1.74-.77-3.63-1.13-5.54-1.13h-4.62v-7.25h4.91c3.16.04 6.29.74 9.1 2.17 4.04 2.04 7.78 5.65 7.78 11.43 0 2.81 2.29 4.36 4.39 5.2 1.51.6 3.14.87 4.76.87h4.68V426Z" class="cls-5"/><path id="Right_Arrow" d="M167.74 417.74v9.06c0 .29.2.49.38.38l7.37-4.53c.28-.17.28-.58 0-.76l-7.37-4.53c-.18-.11-.38.09-.38.38Z" class="cls-5" data-name="Right Arrow"/><path id="Left_arrow" d="M136.27 417.74v9.06c0 .29-.2.49-.38.38l-7.37-4.53a.449.449 0 0 1 0-.76l7.37-4.53c.18-.11.38.09.38.38Z" class="cls-5" data-name="Left arrow"/></g><g id="it"><path d="M181.31 386.59c1.19 0 2.21.28 3.08.84s1.29 1.59 1.29 3.1-.43 2.5-1.29 3.07c-.86.58-1.89.86-3.08.86s-2.26-.29-3.1-.86c-.85-.58-1.27-1.6-1.27-3.07s.42-2.54 1.27-3.1c.84-.56 1.88-.84 3.1-.84Zm3.9 11.65v29.38h-8.07v-29.38h8.07ZM206.17 421.73c.9 0 1.77-.09 2.59-.27s1.66-.4 2.49-.65v5.98c-.86.36-1.94.67-3.22.94-1.28.27-2.68.4-4.19.4-1.77 0-3.35-.29-4.73-.86s-2.49-1.57-3.3-2.99-1.22-3.39-1.22-5.9v-14.17h-3.91v-3.38l4.47-2.68 2.34-6.16h5.17v6.24h8.33v5.98h-8.33v14.17c0 1.11.32 1.95.97 2.51.65.56 1.49.84 2.54.84Z" class="cls-5"/></g><g id="mi"><path d="M101.61 397.42c3.35 0 5.88.88 7.59 2.65 1.71 1.76 2.57 4.6 2.57 8.5v18.79h-8.07v-17.18c0-4.24-1.49-6.36-4.47-6.36-2.15 0-3.67.76-4.58 2.26-.91 1.51-1.36 3.68-1.36 6.52v14.76h-7.81v-17.18c0-4.24-1.49-6.36-4.47-6.36-2.26 0-3.81.84-4.66 2.51-.85 1.67-1.28 4.07-1.28 7.19v13.84H67v-29.38h6.16l1.08 3.9h.43c.9-1.56 2.14-2.69 3.7-3.4 1.57-.71 3.2-1.06 4.89-1.06 2.16 0 4 .36 5.51 1.09s2.66 1.85 3.46 3.37h.7c.9-1.56 2.15-2.69 3.76-3.4 1.6-.71 3.25-1.06 4.94-1.06ZM122.63 386.47c1.19 0 2.21.28 3.08.84s1.29 1.59 1.29 3.1-.43 2.5-1.29 3.07c-.86.58-1.89.86-3.08.86s-2.26-.29-3.1-.86c-.85-.57-1.27-1.6-1.27-3.07s.42-2.54 1.27-3.1c.84-.56 1.88-.84 3.1-.84Zm3.98 11.51v29.38h-8.07v-29.38h8.07Z" class="cls-5"/></g></g></g><g id="Logo-3" data-name="Logo"><text class="cls-3" transform="rotate(-180 380.125 193.6)"><tspan x="0" y="0" class="cls-2">b</tspan><tspan x="7.2" y="0">y mianjoto</tspan></text><g id="Logo-4" data-name="Logo"><g id="X-2" data-name="X"><g id="Left-2" data-name="Left"><path d="M681.26 411.1c1.48-.59 3.08-.85 4.67-.85h4.62V403h-4.74c-2.75.03-5.48.57-7.98 1.69-1.2.54-2.38 1.22-3.47 2.05 1.84 1.88 3.04 4.12 3.55 6.63.85-1.08 2.13-1.8 3.35-2.28ZM667.23 420.16c-.69.58-1.5 1.04-2.3 1.39-1.71.76-3.58 1.11-5.45 1.11h-4.56v7.25h4.82c3.12-.04 6.21-.73 8.99-2.14.79-.4 1.58-.87 2.32-1.4-1.88-1.78-3.17-3.88-3.82-6.21Z" class="cls-5"/></g><path id="Right-2" d="M654.92 403h4.79c2.86.03 5.7.6 8.29 1.8 4.16 1.92 8.15 5.51 8.15 11.56 0 2.65 2.15 4.25 4.24 5.18 1.74.77 3.63 1.13 5.54 1.13h4.62v7.25h-4.91c-3.16-.04-6.29-.74-9.1-2.17-4.04-2.04-7.78-5.65-7.78-11.43 0-2.81-2.29-4.36-4.39-5.2-1.51-.6-3.14-.87-4.76-.87h-4.68V403Z" class="cls-5" data-name="Right"/><path id="Right_Arrow-2" d="M657.27 411.26v-9.06c0-.29-.2-.49-.38-.38l-7.37 4.53c-.28.17-.28.58 0 .76l7.37 4.53c.18.11.38-.09.38-.38Z" class="cls-5" data-name="Right Arrow"/><path id="Left_arrow-2" d="M688.73 411.26v-9.06c0-.29.2-.49.38-.38l7.37 4.53c.28.17.28.58 0 .76l-7.37 4.53c-.18.11-.38-.09-.38-.38Z" class="cls-5" data-name="Left arrow"/></g><g id="it-2" data-name="it"><path d="M643.69 442.41c-1.19 0-2.21-.28-3.08-.84s-1.29-1.59-1.29-3.1.43-2.5 1.29-3.07c.86-.58 1.89-.86 3.08-.86s2.26.29 3.1.86c.85.58 1.27 1.6 1.27 3.07s-.42 2.54-1.27 3.1c-.84.56-1.88.84-3.1.84Zm-3.9-11.65v-29.38h8.07v29.38h-8.07ZM618.83 407.27c-.9 0-1.77.09-2.59.27s-1.66.4-2.49.65v-5.98c.86-.36 1.94-.67 3.22-.94 1.28-.27 2.68-.4 4.19-.4 1.77 0 3.35.29 4.73.86s2.49 1.57 3.3 2.99 1.22 3.39 1.22 5.9v14.17h3.91v3.38l-4.47 2.68-2.34 6.16h-5.17v-6.24h-8.33v-5.98h8.33v-14.17c0-1.11-.32-1.95-.97-2.51-.65-.56-1.49-.84-2.54-.84Z" class="cls-5"/></g><g id="mi-2" data-name="mi"><path d="M723.39 431.58c-3.35 0-5.88-.88-7.59-2.65-1.71-1.76-2.57-4.6-2.57-8.5v-18.79h8.07v17.18c0 4.24 1.49 6.36 4.47 6.36 2.15 0 3.67-.76 4.58-2.26.91-1.51 1.36-3.68 1.36-6.52v-14.76h7.81v17.18c0 4.24 1.49 6.36 4.47 6.36 2.26 0 3.81-.84 4.66-2.51.85-1.67 1.28-4.07 1.28-7.19v-13.84H758v29.38h-6.16l-1.08-3.9h-.43c-.9 1.56-2.14 2.69-3.7 3.4-1.57.71-3.2 1.06-4.89 1.06-2.16 0-4-.36-5.51-1.09s-2.66-1.85-3.46-3.37h-.7c-.9 1.56-2.15 2.69-3.76 3.4-1.6.71-3.25 1.06-4.94 1.06ZM702.37 442.53c-1.19 0-2.21-.28-3.08-.84s-1.29-1.59-1.29-3.1.43-2.5 1.29-3.07c.86-.58 1.89-.86 3.08-.86s2.26.29 3.1.86c.85.57 1.27 1.6 1.27 3.07s-.42 2.54-1.27 3.1c-.84.56-1.88.84-3.1.84Zm-3.98-11.51v-29.38h8.07v29.38h-8.07Z" class="cls-5"/></g></g></g></svg>