<svg fill="none" viewBox="0 0 102 172">
  <rect width="101" height="101" x=".25" fill="currentColor" rx="8"/>
  <path fill="currentColor" d="M.25 109h101v12.12H.25z" opacity=".8"/>
  <path fill="currentColor" d="M5.137 129.12c-2.708 0-4.887 2.219-4.887 4.977v9.954c0 2.759 2.179 4.978 4.887 4.978h9.774c2.709 0 4.887-2.219 4.887-4.978v-9.954c0-2.758-2.178-4.977-4.887-4.977H5.137Zm30.952 3.318c-3.605 0-6.516 2.966-6.516 6.636 0 3.671 2.911 6.637 6.516 6.637h58.645c3.604 0 6.516-2.966 6.516-6.637 0-3.67-2.912-6.636-6.516-6.636H36.089Zm0 33.181c-3.605 0-6.516 2.966-6.516 6.636 0 3.671 2.911 6.637 6.516 6.637h58.645c3.604 0 6.516-2.966 6.516-6.637 0-3.67-2.912-6.636-6.516-6.636H36.089Zm0 33.181c-3.605 0-6.516 2.966-6.516 6.637 0 3.67 2.911 6.636 6.516 6.636h58.645c3.604 0 6.516-2.966 6.516-6.636 0-3.671-2.912-6.637-6.516-6.637H36.089ZM.25 167.278v9.955c0 2.758 2.179 4.977 4.887 4.977h9.774c2.709 0 4.887-2.219 4.887-4.977v-9.955c0-2.758-2.178-4.977-4.887-4.977H5.137c-2.708 0-4.887 2.219-4.887 4.977Zm4.887 28.204c-2.708 0-4.887 2.219-4.887 4.977v9.955c0 2.758 2.179 4.977 4.887 4.977h9.774c2.709 0 4.887-2.219 4.887-4.977v-9.955c0-2.758-2.178-4.977-4.887-4.977H5.137Z" opacity=".3"/>
</svg>