<svg fill="none" xmlns="http://www.w3.org/2000/svg" viewBox="0 0 102 173">
  <path fill-rule="evenodd" clip-rule="evenodd" d="M8.25.5a8 8 0 0 0-8 8v85a8 8 0 0 0 8 8h85a8 8 0 0 0 8-8v-85a8 8 0 0 0-8-8h-85Zm50.475 72.648v6.922H80V58.884h-7.007v9.369l-14.268-14.18-4.897 4.98 14.184 14.095h-9.287ZM22 75.512l4.812 4.98 46.18-46.17v9.285H80V22.422H58.725v6.921h9.455L22 75.512Zm0-48.532 21.36 21.185 4.98-4.895L26.898 22 22 26.98Z" fill="currentColor"/>
  <path opacity=".8" fill="currentColor" d="M.25 109.5h101v12.12H.25z"/>
  <path opacity=".3" d="M5.137 129.62c-2.708 0-4.887 2.219-4.887 4.977v9.954c0 2.759 2.179 4.978 4.887 4.978h9.774c2.709 0 4.887-2.219 4.887-4.978v-9.954c0-2.758-2.178-4.977-4.887-4.977H5.137Zm30.952 3.318c-3.605 0-6.516 2.966-6.516 6.636 0 3.671 2.911 6.637 6.516 6.637h58.645c3.604 0 6.516-2.966 6.516-6.637 0-3.67-2.912-6.636-6.516-6.636H36.089Zm0 33.181c-3.605 0-6.516 2.966-6.516 6.636 0 3.671 2.911 6.637 6.516 6.637h58.645c3.604 0 6.516-2.966 6.516-6.637 0-3.67-2.912-6.636-6.516-6.636H36.089Zm0 33.181c-3.605 0-6.516 2.966-6.516 6.637 0 3.67 2.911 6.636 6.516 6.636h58.645c3.604 0 6.516-2.966 6.516-6.636 0-3.671-2.912-6.637-6.516-6.637H36.089ZM.25 167.778v9.955c0 2.758 2.179 4.977 4.887 4.977h9.774c2.709 0 4.887-2.219 4.887-4.977v-9.955c0-2.758-2.178-4.977-4.887-4.977H5.137c-2.708 0-4.887 2.219-4.887 4.977Zm4.887 28.204c-2.708 0-4.887 2.219-4.887 4.977v9.955c0 2.758 2.179 4.977 4.887 4.977h9.774c2.709 0 4.887-2.219 4.887-4.977v-9.955c0-2.758-2.178-4.977-4.887-4.977H5.137Z" fill="currentColor"/>
</svg>